<svg width="50" height="50" viewBox="0 0 50 50" fill="none" xmlns="http://www.w3.org/2000/svg">
<g clip-path="url(#clip0_418_1070)">
<path d="M25 50C38.8071 50 50 38.8071 50 25C50 11.1929 38.8071 0 25 0C11.1929 0 0 11.1929 0 25C0 38.8071 11.1929 50 25 50Z" fill="#D80027"/>
<path d="M25 36.9565C31.6034 36.9565 36.9565 31.6034 36.9565 25C36.9565 18.3966 31.6034 13.0435 25 13.0435C18.3966 13.0435 13.0435 18.3966 13.0435 25C13.0435 31.6034 18.3966 36.9565 25 36.9565Z" fill="#F0F0F0"/>
<path d="M26.4729 20.4283L28.5241 23.255L31.846 22.1778L29.7916 25.002L31.8426 27.8286L28.5217 26.7474L26.4673 29.5716L26.4695 26.0793L23.1487 24.998L26.4708 23.9209L26.4729 20.4283Z" fill="#D80027"/>
<path d="M27.7174 32.0652C23.8155 32.0652 20.6522 28.9019 20.6522 25C20.6522 21.098 23.8155 17.9348 27.7174 17.9348C28.934 17.9348 30.0789 18.2424 31.0783 18.784C29.5104 17.2507 27.3664 16.3043 25 16.3043C20.1977 16.3043 16.3044 20.1975 16.3044 24.9999C16.3044 29.8023 20.1977 33.6955 25 33.6955C27.3664 33.6955 29.5105 32.7491 31.0783 31.2158C30.0789 31.7576 28.934 32.0652 27.7174 32.0652Z" fill="#D80027"/>
</g>
<defs>
<clipPath id="clip0_418_1070">
<rect width="50" height="50" fill="white"/>
</clipPath>
</defs>
</svg>
