<svg width="50" height="50" viewBox="0 0 50 50" fill="none" xmlns="http://www.w3.org/2000/svg">
<g clip-path="url(#clip0_418_1070)">
<path d="M33.6955 1.55498C30.9872 0.550098 28.0579 0 24.9999 0C21.9419 0 19.0126 0.550098 16.3043 1.55498L14.1304 25L16.3043 48.445C19.0126 49.45 21.9419 50 24.9999 50C28.0579 50 30.9872 49.45 33.6955 48.445L35.8694 25L33.6955 1.55498Z" fill="#FFDA44"/>
<path d="M49.9999 25C49.9999 14.251 43.2156 5.08731 33.6956 1.55508V48.4452C43.2156 44.9127 49.9999 35.7492 49.9999 25V25Z" fill="#D80027"/>
<path d="M0 25C0 35.7492 6.78437 44.9127 16.3044 48.4451V1.55508C6.78437 5.08731 0 14.251 0 25V25Z" fill="black"/>
</g>
<defs>
<clipPath id="clip0_418_1070">
<rect width="50" height="50" fill="white"/>
</clipPath>
</defs>
</svg>
