<svg width="50" height="50" viewBox="0 0 50 50" fill="none" xmlns="http://www.w3.org/2000/svg">
<g clip-path="url(#clip0_418_1070)">
<path d="M35.8695 2.48066C32.5828 0.891406 28.8955 0 25 0C21.1045 0 17.4172 0.891406 14.1305 2.48066L11.9565 25L14.1305 47.5193C17.4172 49.1086 21.1045 50 25 50C28.8955 50 32.5828 49.1086 35.8695 47.5193L38.0435 25L35.8695 2.48066Z" fill="#FFDA44"/>
<path d="M24.9999 16.3044L27.1581 22.947H34.1433L28.4925 27.0527L30.6508 33.6956L24.9999 29.5901L19.349 33.6956L21.5077 27.0527L15.8569 22.947H22.8416L24.9999 16.3044Z" fill="#496E2D"/>
<path d="M14.1305 2.48154C5.76816 6.52519 0 15.0886 0 25C0 34.9114 5.76816 43.4748 14.1305 47.5184V2.48154Z" fill="#496E2D"/>
<path d="M35.8696 2.48154V47.5184C44.2319 43.4748 50.0001 34.9114 50.0001 25C50.0001 15.0886 44.2319 6.52519 35.8696 2.48154Z" fill="#D80027"/>
</g>
<defs>
<clipPath id="clip0_418_1070">
<rect width="50" height="50" fill="white"/>
</clipPath>
</defs>
</svg>
