<svg width="50" height="50" viewBox="0 0 50 50" fill="none" xmlns="http://www.w3.org/2000/svg">
<g clip-path="url(#clip0_418_1070)">
<path d="M50 25C50 38.807 38.807 50 25 50C11.193 50 0 38.807 0 25C0 25.0059 25 0.00283203 25 0C38.807 0 50 11.193 50 25Z" fill="#0052B4"/>
<path d="M25 0C24.9987 0 24.9972 9.76563e-05 24.9958 9.76563e-05L25 0Z" fill="#F0F0F0"/>
<path d="M24.9331 25H25C25 24.9773 25 24.9557 25 24.9331C24.9777 24.9555 24.9555 24.9777 24.9331 25Z" fill="#F0F0F0"/>
<path d="M25 13.0435C25 8.64462 25 5.7621 25 9.15527e-05H24.9958C11.1906 0.00233765 0 11.1942 0 25H13.0435V17.6551L20.3884 25H24.9332C24.9556 24.9777 24.9778 24.9555 25.0001 24.9331C25.0001 23.2488 25.0001 21.746 25.0001 20.3886L17.6551 13.0435H25Z" fill="#F0F0F0"/>
<path d="M12.6479 3.26083C8.73779 5.4873 5.48721 8.73788 3.26074 12.6479V25H9.78252V9.78271V9.78261H24.9999C24.9999 7.72568 24.9999 5.76611 24.9999 3.26083H12.6479Z" fill="#D80027"/>
<path d="M24.9999 21.9257L16.1178 13.0437H13.0435C13.0435 13.0436 13.0435 13.0437 13.0435 13.0437L24.9998 25H24.9999C24.9999 25 24.9999 22.8804 24.9999 21.9257Z" fill="#D80027"/>
<path d="M15.0777 29.3479L16.4498 32.2168L19.5481 31.5007L18.1606 34.3622L20.6522 36.3381L17.55 37.0373L17.5586 40.2174L15.0777 38.2278L12.5968 40.2174L12.6055 37.0373L9.50317 36.3381L11.9949 34.3622L10.6072 31.5007L13.7057 32.2168L15.0777 29.3479Z" fill="#F0F0F0"/>
<path d="M37.43 34.7826L38.1161 36.2171L39.6653 35.859L38.9714 37.2897L40.2173 38.2777L38.6662 38.6273L38.6705 40.2174L37.43 39.2226L36.1896 40.2174L36.1939 38.6273L34.6428 38.2777L35.8886 37.2897L35.1949 35.859L36.744 36.2171L37.43 34.7826Z" fill="#F0F0F0"/>
<path d="M31.0483 19.5652L31.7342 20.9998L33.2834 20.6416L32.5897 22.0724L33.8355 23.0604L32.2844 23.41L32.2886 25L31.0483 24.0052L29.8079 25L29.8121 23.41L28.261 23.0604L29.5068 22.0724L28.813 20.6416L30.3623 20.9998L31.0483 19.5652Z" fill="#F0F0F0"/>
<path d="M37.43 10.8695L38.1161 12.3041L39.6653 11.946L38.9715 13.3768L40.2172 14.3647L38.6662 14.7144L38.6705 16.3044L37.43 15.3096L36.1896 16.3044L36.1939 14.7144L34.6428 14.3647L35.8885 13.3768L35.1949 11.946L36.744 12.3041L37.43 10.8695Z" fill="#F0F0F0"/>
<path d="M43.0048 17.3913L43.6908 18.8259L45.24 18.4677L44.5462 19.8985L45.792 20.8864L44.2409 21.2361L44.2452 22.8261L43.0048 21.8314L41.7644 22.8261L41.7686 21.2361L40.2175 20.8864L41.4633 19.8985L40.7696 18.4677L42.3187 18.8259L43.0048 17.3913Z" fill="#F0F0F0"/>
<path d="M39.0185 25L39.5581 26.6607H41.3043L39.8916 27.6872L40.4313 29.3479L39.0185 28.3215L37.6058 29.3479L38.1454 27.6872L36.7327 26.6607H38.4789L39.0185 25Z" fill="#F0F0F0"/>
</g>
<defs>
<clipPath id="clip0_418_1070">
<rect width="50" height="50" fill="white"/>
</clipPath>
</defs>
</svg>
