<svg width="50" height="50" viewBox="0 0 50 50" fill="none" xmlns="http://www.w3.org/2000/svg">
<g clip-path="url(#clip0_418_1070)">
<path d="M25 50C38.8071 50 50 38.8071 50 25C50 11.1929 38.8071 0 25 0C11.1929 0 0 11.1929 0 25C0 38.8071 11.1929 50 25 50Z" fill="#F0F0F0"/>
<path d="M50.0001 25C50.0001 11.193 38.8071 0 25.0001 0C20.1095 0 15.5476 1.40576 11.6942 3.83311L17.174 6.16133L9.78271 9.30176L17.174 12.4421L9.78271 15.5823L17.174 18.7225L9.78271 21.8622L17.174 25.0018L9.78271 28.142L17.174 31.282L9.78271 34.4218L17.174 37.5618L9.78271 40.7021L17.174 43.8418L11.6967 46.1688C15.5495 48.5949 20.1104 50 25.0001 50C38.8071 50 50.0001 38.807 50.0001 25Z" fill="#751A46"/>
</g>
<defs>
<clipPath id="clip0_418_1070">
<rect width="50" height="50" fill="white"/>
</clipPath>
</defs>
</svg>
